PathFileType	3	(X/Y/Z)	D:\minhoCalibration\240510\subject1_KPNP\preferred\preferred12.trc
DataRate	CameraRate	NumFrames	NumMarkers	Units	OrigDataRate	OrigDataStartFrame	OrigNumFrames
200.0	200.0	27	10	mm	200.0	568	280	
Frame#	Time	Left_Ankle_Outer1			Left_Ankle_Inner1			Left_Knee_Outer1			Left_Knee_Inner1			Left_Wrist1			Right_Wrist1			Right_Knee_Inner1			Right_Knee_Outer1			Right_Ankle_Inner1			Right_Ankle_Outer1			
		X1	Y1	Z1	X2	Y2	Z2	X3	Y3	Z3	X4	Y4	Z4	X5	Y5	Z5	X6	Y6	Z6	X7	Y7	Z7	X8	Y8	Z8	X9	Y9	Z9	X10	Y10	Z10	
568	2.83	-511.22345	91.349342	-567.14032	-558.61469	99.998001	-534.76666	-435.27588	532.7193	-465.71762	-539.78503	507.16788	-479.68433	-412.65466	1000.5758	-506.56564	-737.22449	1011.8478	-632.05872	-709.01141	534.62592	-554.27026	-784.64508	563.20276	-633.81659	-640.724	149.15514	-767.22736	-738.53363	138.08904	-817.6532
569	2.835	-511.46561	91.287926	-566.94666	-558.65863	99.92939	-534.7431	-435.97989	532.92273	-465.45963	-541.01184	507.61313	-478.08395	-414.05222	1000.5739	-507.57825	-738.38263	1011.3313	-633.85028	-708.04541	533.70605	-560.21497	-782.87836	562.4668	-640.52814	-640.01331	146.4346	-768.47876	-737.6109	135.23376	-819.39148
570	2.84	-511.7489	91.259407	-566.72351	-558.84711	99.970985	-534.54462	-436.70346	533.0957	-465.13571	-541.70654	507.66568	-477.73016	-415.49286	1000.5663	-508.6825	-739.58636	1010.8309	-635.66736	-706.65851	532.55054	-565.54443	-781.11481	561.70654	-646.84302	-639.37579	143.73874	-769.67126	-736.73077	132.52885	-820.92383
571	2.845	-511.77405	91.342407	-566.66376	-559.67786	99.903145	-535.06653	-437.37701	533.30774	-464.85123	-542.39301	507.6788	-477.33759	-417.09302	1000.5435	-509.90814	-740.79883	1010.4184	-637.59723	-705.87335	531.89673	-571.18542	-779.41132	561.00439	-653.08154	-638.62817	141.33952	-770.6438	-735.73492	129.97731	-822.29852
572	2.85	-512.5722	90.857422	-565.75891	-559.79083	99.874916	-534.87482	-438.10153	533.48346	-464.53833	-543.12482	507.6868	-476.93652	-418.56241	1000.4555	-510.86575	-741.9729	1009.938	-639.55676	-704.79187	530.88324	-575.6806	-777.57635	560.60065	-659.67377	-637.77063	139.11143	-771.5769	-734.75439	127.78457	-823.57861
573	2.855	-512.66058	90.930847	-565.73175	-559.96277	99.887238	-534.7019	-438.78943	533.66888	-464.21432	-543.86011	507.76596	-476.43225	-420.07556	1000.427	-511.99329	-743.08618	1009.5286	-641.58386	-703.91504	530.44031	-581.34155	-776.03448	560.25	-665.85468	-636.89044	136.94472	-772.5777	-733.60175	125.6061	-824.8045
574	2.86	-512.79932	91.176842	-565.65179	-560.02814	99.819107	-534.62366	-439.45175	533.89313	-463.89929	-544.56342	507.79724	-475.9574	-421.63693	1000.3303	-513.05945	-744.16412	1009.0756	-643.64355	-702.72302	529.72839	-586.06335	-774.30615	559.8313	-671.87506	-635.86151	135.15611	-773.54907	-732.50171	123.76299	-826.00421
575	2.865	-512.94476	91.252693	-565.58508	-560.22089	99.852661	-534.52631	-440.08676	534.16449	-463.64062	-545.20593	507.80887	-475.55048	-423.31091	1000.2756	-514.31598	-745.22235	1008.6232	-645.79919	-701.77472	529.26062	-590.74188	-772.81598	559.38263	-677.42432	-634.85724	133.40344	-774.49036	-731.23022	121.9132	-827.19672
576	2.87	-513.14642	91.374557	-565.48114	-560.31824	99.82769	-534.4505	-440.70569	534.34918	-463.34131	-545.9328	507.8299	-475.0033	-424.94461	1000.2061	-515.35303	-746.27277	1008.2477	-648.0517	-700.82544	528.90857	-595.38544	-771.26971	559.01624	-682.87708	-634.01453	131.79428	-775.32538	-730.17249	120.20833	-828.27094
577	2.875	-513.3429	91.538666	-565.41199	-560.51373	99.894508	-534.30518	-441.26624	534.64709	-463.13007	-546.56097	507.84201	-474.52097	-426.51352	1000.1217	-516.30823	-747.25439	1007.9269	-650.44342	-700.36957	528.93134	-600.28326	-769.75403	558.70105	-687.84595	-633.11877	130.36894	-776.05469	-729.14417	118.75629	-829.32098
578	2.88	-513.49249	91.671623	-565.40009	-560.67462	99.956764	-534.16632	-442.38104	534.61786	-462.75058	-547.17389	507.82208	-474.00259	-428.18411	1000.0151	-517.33154	-748.18781	1007.5074	-652.8374	-699.27692	529.0929	-603.56812	-768.31396	558.34631	-692.65289	-632.41858	128.9021	-776.82678	-728.32056	117.23712	-830.22449
579	2.885	-513.57495	91.809334	-565.37994	-561.02618	100.27361	-532.90869	-442.93375	534.823	-462.44144	-547.8053	507.87646	-473.46451	-429.94421	999.91425	-518.35559	-749.0199	1006.6954	-655.55743	-698.36285	528.85828	-609.36981	-766.77014	557.95789	-696.84515	-631.78888	127.58461	-777.60565	-727.71112	115.92934	-831.01367
580	2.89	-513.21686	92.383232	-565.99945	-560.98914	100.45821	-533.07104	-443.44519	535.0332	-462.03625	-548.41919	507.91586	-472.85239	-431.61099	999.82562	-519.38019	-749.95587	1006.8066	-658.04883	-696.72217	528.66162	-612.53516	-765.15778	557.49927	-700.8479	-631.26202	126.2735	-778.49396	-727.42224	114.61073	-831.69342
581	2.895	-513.36755	92.506905	-565.99542	-561.02209	100.6241	-533.18646	-443.88171	535.20636	-461.58182	-548.98669	507.86615	-472.24011	-433.32703	999.70959	-520.43341	-750.711	1006.4572	-660.84644	-695.11761	529.11011	-615.96973	-763.66779	556.95679	-704.55072	-630.83899	125.07578	-779.45337	-727.18097	113.55714	-832.25586
582	2.9	-513.56451	92.673141	-565.9693	-560.96936	100.77467	-533.18018	-444.289	535.40479	-461.07159	-550.20453	508.23648	-469.97308	-435.07751	999.61066	-521.44867	-751.53198	1006.1964	-663.81659	-692.49719	528.65302	-619.42706	-762.08746	556.43854	-707.93561	-630.44971	123.92919	-780.5163	-727.08124	112.48463	-832.73419
583	2.905	-513.64868	92.952667	-565.94733	-560.95276	101.03491	-533.00854	-444.63266	535.58185	-460.4801	-550.54883	508.10849	-469.45837	-436.8002	999.47406	-522.46332	-752.40057	1005.941	-666.58801	-689.73596	528.21222	-622.51746	-760.64349	555.89343	-711.00061	-630.065	122.9178	-781.53778	-727.0658	111.45535	-833.17365
584	2.91	-513.7796	93.319672	-565.94067	-561.04779	101.23754	-532.95776	-444.90549	535.79456	-459.77203	-551.03815	508.12787	-468.4552	-438.67859	999.3587	-523.65723	-752.93939	1005.7524	-669.94531	-687.01764	527.99451	-626.28851	-759.33942	555.29205	-713.8631	-629.62726	121.94673	-782.54468	-726.98981	110.40585	-833.61078
585	2.915	-513.90228	93.692955	-565.94128	-561.1037	101.46352	-532.80878	-445.23874	535.98077	-458.93265	-551.46228	508.08771	-467.35742	-440.38519	999.1308	-524.38086	-753.6394	1005.585	-673.16724	-684.23639	527.77313	-629.90479	-758.01135	554.69879	-716.35229	-629.25635	120.95012	-783.64124	-726.95605	109.37719	-834.04987
586	2.92	-514.49304	93.736595	-565.25934	-561.15338	101.76807	-532.63214	-445.55325	536.14636	-457.94617	-551.84351	508.05032	-466.23822	-442.15308	998.89948	-525.41095	-754.32733	1005.3618	-676.36945	-681.58978	527.54889	-633.34894	-756.87561	553.93097	-718.66772	-628.86237	120.04189	-784.64471	-726.9151	108.42731	-834.42743
587	2.925	-514.49817	94.183563	-565.26306	-561.12164	102.0827	-532.35944	-444.92471	536.73004	-457.26514	-552.16162	508.04269	-464.978	-443.92831	998.57031	-526.43903	-755.10956	1005.1989	-679.65149	-679.02136	527.21588	-637.00293	-755.84808	553.22083	-720.81799	-628.45209	119.13223	-785.73285	-726.8219	107.37151	-834.77545
588	2.93	-514.19763	95.00956	-565.79443	-561.1073	102.45848	-532.04797	-445.25574	536.85352	-456.21799	-552.46173	507.95496	-463.65848	-445.64142	998.24921	-527.50653	-755.76892	1005.2189	-682.84058	-676.77539	526.80444	-640.59753	-754.94659	552.59363	-723.22003	-628.05078	118.32839	-786.71484	-726.90332	106.55511	-835.16083
589	2.935	-514.25812	95.518776	-565.72858	-561.09161	102.91757	-531.69379	-445.39853	537.09003	-455.00589	-553.16443	507.87497	-462.20215	-447.20685	997.97449	-528.68835	-756.50055	1004.6607	-686.19397	-675.24939	526.68744	-644.10516	-754.25244	551.90662	-725.48224	-627.83301	117.5063	-787.84949	-726.96515	105.67458	-835.54449
590	2.94	-514.3114	96.166939	-565.58167	-561.05359	103.28495	-531.43976	-445.48685	537.37103	-453.75931	-552.9317	507.86264	-460.60022	-448.00604	997.61255	-530.3374	-757.15076	1004.6488	-689.41595	-673.53882	525.98724	-647.04797	-753.6936	551.24036	-727.90948	-627.58252	116.75515	-788.85883	-727.06238	104.90605	-835.97003
591	2.945	-514.27734	96.785713	-565.46967	-561.01141	103.68925	-531.10449	-445.60483	537.63452	-452.40381	-553.15302	507.86496	-458.99182	-450.25424	996.98907	-531.30261	-757.75073	1003.9419	-692.74451	-672.50452	525.48743	-650.10333	-753.41534	550.62659	-730.07367	-627.38324	116.1338	-789.77777	-727.22412	104.20389	-836.40564
592	2.95	-514.74078	96.970322	-564.69122	-560.90698	104.17702	-530.86322	-445.48276	538.04401	-450.97369	-553.30682	507.91031	-457.40698	-451.84387	996.41931	-532.44769	-758.3089	1003.8334	-695.94775	-671.87213	525.05695	-652.91364	-753.31561	550.21539	-732.60724	-627.284	115.52095	-790.63684	-727.34076	103.54841	-836.85645
593	2.955	-514.18195	98.025307	-565.17407	-560.6748	104.69714	-530.5426	-445.73724	538.29474	-449.61734	-553.48981	507.96439	-455.72345	-453.3476	995.78577	-533.69287	-758.80768	1003.288	-699.32452	-671.79919	524.75574	-655.68695	-753.37872	549.88257	-734.86627	-627.21149	115.06849	-791.42859	-727.46655	103.04482	-837.2359
594	2.96	-514.05695	98.77829	-564.98804	-560.65546	105.22833	-530.39392	-445.56113	538.7478	-448.14999	-553.55145	508.03958	-454.06641	-454.80673	995.14386	-534.92657	-759.29675	1002.9911	-702.51642	-671.28693	524.07727	-658.82599	-753.54327	549.59796	-737.03351	-627.11664	114.65883	-792.07971	-727.58459	102.60245	-837.54333
